<?xml version="1.0" encoding="UTF-8" standalone="no"?>
<!DOCTYPE svg PUBLIC "-//W3C//DTD SVG 1.1//EN" "http://www.w3.org/Graphics/SVG/1.1/DTD/svg11.dtd">
<svg width="100%" height="100%" viewBox="0 0 960 750" version="1.1" xmlns="http://www.w3.org/2000/svg" xmlns:xlink="http://www.w3.org/1999/xlink" xml:space="preserve" xmlns:serif="http://www.serif.com/" style="fill-rule:evenodd;clip-rule:evenodd;stroke-linejoin:round;stroke-miterlimit:2;">
    <g>
        <g transform="matrix(-0.25,-0.433013,0.433013,-0.25,157.849,1123.65)">
            <path d="M455.246,951.521C430.148,934.713 407.699,919.679 374.624,897.528C470.382,842.338 553.903,788.171 651.007,732.207C651.007,846.732 638.889,940.309 638.889,1049.2C610.919,1035.65 587.04,1024.08 551.855,1007.04C497.461,1108.48 446.795,1183.87 398.279,1288.35C348.598,1395.34 401.493,1502.74 532.944,1507.5C610.316,1510.3 687.879,1508.11 771.019,1508.11C771.019,1553.04 768.623,1573.59 768.623,1617.19C669.745,1617.19 570.94,1629.84 476.717,1614.45C300.919,1585.74 195.431,1408.67 302.993,1215.86C352.086,1127.86 403.507,1041.15 455.246,951.521Z" style="fill:rgb(193,183,170);fill-rule:nonzero;stroke:rgb(130,115,95);stroke-width:22px;"/>
        </g>
        <g transform="matrix(1,0,0,1,-1098.64,181.804)">
            <text x="1556.83px" y="303.959px" style="font-family:'FrenchScriptMT', 'French Script MT', cursive;font-size:240px;fill:white;stroke:white;stroke-width:20px;">f<tspan x="1607.34px 1657.85px 1720.19px " y="303.959px 303.959px 303.959px ">fer</tspan>ents</text>
        </g>
        <g transform="matrix(0.5,0,0,0.5,-112.264,-124.973)">
            <path d="M455.246,951.521C430.148,934.713 407.699,919.679 374.624,897.528C470.382,842.338 549.097,787.11 646.201,731.146C646.201,845.671 640.211,938.419 640.211,1047.31C612.241,1033.76 588.362,1022.19 553.177,1005.15C498.783,1106.59 447.293,1181.6 399.601,1286.46C351.253,1392.76 401.928,1504.81 530.548,1507.75C607.952,1509.51 685.483,1508.36 768.623,1508.36L768.623,1617.19C669.745,1617.19 571.068,1629.04 476.717,1614.45C277.266,1583.62 213.902,1376.23 302.993,1215.86C351.928,1127.77 403.507,1041.15 455.246,951.521Z" style="fill:rgb(193,183,170);fill-rule:nonzero;stroke:rgb(130,115,95);stroke-width:22px;"/>
        </g>
        <g transform="matrix(-0.25,0.433013,-0.433013,-0.25,1102.21,265.326)">
            <path d="M455.246,951.521C430.148,934.713 407.699,919.679 374.624,897.528C470.382,842.338 550.003,787.212 647.107,731.248C647.107,845.773 637.868,942.455 637.868,1051.34C609.898,1037.79 586.019,1026.22 550.834,1009.18C496.44,1110.62 453.228,1189.81 397.258,1290.5C336.936,1399.02 389.696,1502.34 528.115,1507.55C605.484,1510.46 683.05,1508.16 766.19,1508.16C766.19,1553.09 768.623,1573.59 768.623,1617.19C669.745,1617.19 570.94,1629.84 476.717,1614.45C270.55,1580.78 203.072,1394.8 302.993,1215.86C352.122,1127.88 403.507,1041.15 455.246,951.521Z" style="fill:rgb(193,183,170);fill-rule:nonzero;stroke:rgb(130,115,95);stroke-width:22px;"/>
        </g>
        <g transform="matrix(1,0,0,1,-1328.77,248.868)">
            <text x="1556.83px" y="303.959px" style="font-family:'FrenchScriptMT', 'French Script MT', cursive;font-size:440px;fill:rgb(77,68,56);stroke:rgb(77,68,56);stroke-width:13px;">E</text>
        </g>
        <g transform="matrix(1,0,0,1,-1098.64,181.804)">
            <text x="1556.83px" y="303.959px" style="font-family:'FrenchScriptMT', 'French Script MT', cursive;font-size:240px;fill:rgb(77,68,56);stroke:rgb(77,68,56);stroke-width:7px;">f<tspan x="1607.34px 1657.85px 1720.19px " y="303.959px 303.959px 303.959px ">fer</tspan>ents</text>
        </g>
    </g>
</svg>
